<?xml version="1.0" encoding="utf-8" standalone="no"?>
<!DOCTYPE svg PUBLIC "-//W3C//DTD SVG 1.1//EN"
  "http://www.w3.org/Graphics/SVG/1.1/DTD/svg11.dtd">
<svg xmlns:xlink="http://www.w3.org/1999/xlink" width="223.2pt" height="194.04pt" viewBox="0 0 223.2 194.04" xmlns="http://www.w3.org/2000/svg" version="1.1">
 <metadata>
  <rdf:RDF xmlns:dc="http://purl.org/dc/elements/1.1/" xmlns:cc="http://creativecommons.org/ns#" xmlns:rdf="http://www.w3.org/1999/02/22-rdf-syntax-ns#">
   <cc:Work>
    <dc:type rdf:resource="http://purl.org/dc/dcmitype/StillImage"/>
    <dc:date>2025-11-23T12:34:16.709832</dc:date>
    <dc:format>image/svg+xml</dc:format>
    <dc:creator>
     <cc:Agent>
      <dc:title>Matplotlib v3.10.3, https://matplotlib.org/</dc:title>
     </cc:Agent>
    </dc:creator>
   </cc:Work>
  </rdf:RDF>
 </metadata>
 <defs>
  <style type="text/css">*{stroke-linejoin: round; stroke-linecap: butt}</style>
 </defs>
 <g id="figure_1">
  <g id="patch_1">
   <path d="M 0 194.04 
L 223.2 194.04 
L 223.2 0 
L 0 0 
z
" style="fill: #ffffff"/>
  </g>
  <g id="axes_1">
   <g id="line2d_1">
    <path d="M 201.609064 28.316725 
L 213.054545 8.82 
" clip-path="url(#p9407e7a159)" style="fill: none; stroke: #000000; stroke-width: 0.6; stroke-linecap: square"/>
   </g>
   <g id="line2d_2">
    <path d="M 183.585513 44.222071 
L 201.609064 28.316725 
" clip-path="url(#p9407e7a159)" style="fill: none; stroke: #000000; stroke-width: 0.6; stroke-linecap: square"/>
   </g>
   <g id="line2d_3">
    <path d="M 167.823407 53.295176 
L 183.585513 44.222071 
" clip-path="url(#p9407e7a159)" style="fill: none; stroke: #000000; stroke-width: 0.6; stroke-linecap: square"/>
   </g>
   <g id="line2d_4">
    <path d="M 183.585513 44.222071 
L 183.585513 44.222071 
" clip-path="url(#p9407e7a159)" style="fill: none; stroke: #000000; stroke-width: 0.6; stroke-linecap: square"/>
   </g>
   <g id="line2d_5">
    <path d="M 183.030941 38.456371 
L 183.585513 44.222071 
" clip-path="url(#p9407e7a159)" style="fill: none; stroke: #000000; stroke-width: 0.6; stroke-linecap: square"/>
   </g>
   <g id="line2d_6">
    <path d="M 152.375183 62.236134 
L 167.823407 53.295176 
" clip-path="url(#p9407e7a159)" style="fill: none; stroke: #000000; stroke-width: 0.6; stroke-linecap: square"/>
   </g>
   <g id="line2d_7">
    <path d="M 139.122638 66.527607 
L 152.375183 62.236134 
" clip-path="url(#p9407e7a159)" style="fill: none; stroke: #000000; stroke-width: 0.6; stroke-linecap: square"/>
   </g>
   <g id="line2d_8">
    <path d="M 139.122638 66.527607 
L 139.122638 66.527607 
" clip-path="url(#p9407e7a159)" style="fill: none; stroke: #000000; stroke-width: 0.6; stroke-linecap: square"/>
   </g>
   <g id="line2d_9">
    <path d="M 125.792369 72.529483 
L 139.122638 66.527607 
" clip-path="url(#p9407e7a159)" style="fill: none; stroke: #000000; stroke-width: 0.6; stroke-linecap: square"/>
   </g>
   <g id="line2d_10">
    <path d="M 113.426914 82.251134 
L 125.792369 72.529483 
" clip-path="url(#p9407e7a159)" style="fill: none; stroke: #000000; stroke-width: 0.6; stroke-linecap: square"/>
   </g>
   <g id="line2d_11">
    <path d="M 97.346442 97.806903 
L 113.426914 82.251134 
" clip-path="url(#p9407e7a159)" style="fill: none; stroke: #000000; stroke-width: 0.6; stroke-linecap: square"/>
   </g>
   <g id="line2d_12">
    <path d="M 80.931163 115.901565 
L 97.346442 97.806903 
" clip-path="url(#p9407e7a159)" style="fill: none; stroke: #000000; stroke-width: 0.6; stroke-linecap: square"/>
   </g>
   <g id="line2d_13">
    <path d="M 60.557981 138.976548 
L 80.931163 115.901565 
" clip-path="url(#p9407e7a159)" style="fill: none; stroke: #000000; stroke-width: 0.6; stroke-linecap: square"/>
   </g>
   <g id="line2d_14">
    <path d="M 38.794003 158.066525 
L 60.557981 138.976548 
" clip-path="url(#p9407e7a159)" style="fill: none; stroke: #000000; stroke-width: 0.6; stroke-linecap: square"/>
   </g>
   <g id="line2d_15">
    <path d="M 16.991164 177.389866 
L 38.794003 158.066525 
" clip-path="url(#p9407e7a159)" style="fill: none; stroke: #000000; stroke-width: 0.6; stroke-linecap: square"/>
   </g>
   <g id="line2d_16">
    <path d="M 25.196188 126.869703 
L 38.794003 158.066525 
" clip-path="url(#p9407e7a159)" style="fill: none; stroke: #000000; stroke-width: 0.6; stroke-linecap: square"/>
   </g>
   <g id="line2d_17">
    <path d="M 25.196188 126.869703 
L 25.196188 126.869703 
" clip-path="url(#p9407e7a159)" style="fill: none; stroke: #000000; stroke-width: 0.6; stroke-linecap: square"/>
   </g>
   <g id="line2d_18">
    <path d="M 25.100015 127.559077 
L 25.196188 126.869703 
" clip-path="url(#p9407e7a159)" style="fill: none; stroke: #000000; stroke-width: 0.6; stroke-linecap: square"/>
   </g>
   <g id="line2d_19">
    <path d="M 16.991164 177.389866 
L 16.991164 177.389866 
" clip-path="url(#p9407e7a159)" style="fill: none; stroke: #000000; stroke-width: 0.6; stroke-linecap: square"/>
   </g>
   <g id="line2d_20">
    <path d="M 10.145455 185.22 
L 16.991164 177.389866 
" clip-path="url(#p9407e7a159)" style="fill: none; stroke: #000000; stroke-width: 0.6; stroke-linecap: square"/>
   </g>
   <g id="line2d_21">
    <path d="M 128.505953 60.689332 
L 139.122638 66.527607 
" clip-path="url(#p9407e7a159)" style="fill: none; stroke: #000000; stroke-width: 0.6; stroke-linecap: square"/>
   </g>
   <g id="line2d_22">
    <defs>
     <path id="m07312e8ca7" d="M 0 2.25 
C 0.596707 2.25 1.169055 2.012926 1.59099 1.59099 
C 2.012926 1.169055 2.25 0.596707 2.25 0 
C 2.25 -0.596707 2.012926 -1.169055 1.59099 -1.59099 
C 1.169055 -2.012926 0.596707 -2.25 0 -2.25 
C -0.596707 -2.25 -1.169055 -2.012926 -1.59099 -1.59099 
C -2.012926 -1.169055 -2.25 -0.596707 -2.25 0 
C -2.25 0.596707 -2.012926 1.169055 -1.59099 1.59099 
C -1.169055 2.012926 -0.596707 2.25 0 2.25 
z
" style="stroke: #0073bd"/>
    </defs>
    <g clip-path="url(#p9407e7a159)">
     <use xlink:href="#m07312e8ca7" x="213.054545" y="8.82" style="fill: #0073bd; stroke: #0073bd"/>
    </g>
   </g>
   <g id="line2d_23">
    <g clip-path="url(#p9407e7a159)">
     <use xlink:href="#m07312e8ca7" x="201.609064" y="28.316725" style="fill: #0073bd; stroke: #0073bd"/>
    </g>
   </g>
   <g id="line2d_24">
    <g clip-path="url(#p9407e7a159)">
     <use xlink:href="#m07312e8ca7" x="183.585513" y="44.222071" style="fill: #0073bd; stroke: #0073bd"/>
    </g>
   </g>
   <g id="line2d_25">
    <g clip-path="url(#p9407e7a159)">
     <use xlink:href="#m07312e8ca7" x="183.585513" y="44.222071" style="fill: #0073bd; stroke: #0073bd"/>
    </g>
   </g>
   <g id="line2d_26">
    <g clip-path="url(#p9407e7a159)">
     <use xlink:href="#m07312e8ca7" x="183.030941" y="38.456371" style="fill: #0073bd; stroke: #0073bd"/>
    </g>
   </g>
   <g id="line2d_27">
    <g clip-path="url(#p9407e7a159)">
     <use xlink:href="#m07312e8ca7" x="167.823407" y="53.295176" style="fill: #0073bd; stroke: #0073bd"/>
    </g>
   </g>
   <g id="line2d_28">
    <g clip-path="url(#p9407e7a159)">
     <use xlink:href="#m07312e8ca7" x="152.375183" y="62.236134" style="fill: #0073bd; stroke: #0073bd"/>
    </g>
   </g>
   <g id="line2d_29">
    <g clip-path="url(#p9407e7a159)">
     <use xlink:href="#m07312e8ca7" x="139.122638" y="66.527607" style="fill: #0073bd; stroke: #0073bd"/>
    </g>
   </g>
   <g id="line2d_30">
    <g clip-path="url(#p9407e7a159)">
     <use xlink:href="#m07312e8ca7" x="125.792369" y="72.529483" style="fill: #0073bd; stroke: #0073bd"/>
    </g>
   </g>
   <g id="line2d_31">
    <g clip-path="url(#p9407e7a159)">
     <use xlink:href="#m07312e8ca7" x="113.426914" y="82.251134" style="fill: #0073bd; stroke: #0073bd"/>
    </g>
   </g>
   <g id="line2d_32">
    <g clip-path="url(#p9407e7a159)">
     <use xlink:href="#m07312e8ca7" x="97.346442" y="97.806903" style="fill: #0073bd; stroke: #0073bd"/>
    </g>
   </g>
   <g id="line2d_33">
    <g clip-path="url(#p9407e7a159)">
     <use xlink:href="#m07312e8ca7" x="80.931163" y="115.901565" style="fill: #0073bd; stroke: #0073bd"/>
    </g>
   </g>
   <g id="line2d_34">
    <g clip-path="url(#p9407e7a159)">
     <use xlink:href="#m07312e8ca7" x="60.557981" y="138.976548" style="fill: #0073bd; stroke: #0073bd"/>
    </g>
   </g>
   <g id="line2d_35">
    <g clip-path="url(#p9407e7a159)">
     <use xlink:href="#m07312e8ca7" x="38.794003" y="158.066525" style="fill: #0073bd; stroke: #0073bd"/>
    </g>
   </g>
   <g id="line2d_36">
    <g clip-path="url(#p9407e7a159)">
     <use xlink:href="#m07312e8ca7" x="25.196188" y="126.869703" style="fill: #0073bd; stroke: #0073bd"/>
    </g>
   </g>
   <g id="line2d_37">
    <g clip-path="url(#p9407e7a159)">
     <use xlink:href="#m07312e8ca7" x="25.196188" y="126.869703" style="fill: #0073bd; stroke: #0073bd"/>
    </g>
   </g>
   <g id="line2d_38">
    <g clip-path="url(#p9407e7a159)">
     <use xlink:href="#m07312e8ca7" x="25.100015" y="127.559077" style="fill: #0073bd; stroke: #0073bd"/>
    </g>
   </g>
   <g id="line2d_39">
    <g clip-path="url(#p9407e7a159)">
     <use xlink:href="#m07312e8ca7" x="16.991164" y="177.389866" style="fill: #0073bd; stroke: #0073bd"/>
    </g>
   </g>
   <g id="line2d_40">
    <g clip-path="url(#p9407e7a159)">
     <use xlink:href="#m07312e8ca7" x="16.991164" y="177.389866" style="fill: #0073bd; stroke: #0073bd"/>
    </g>
   </g>
   <g id="line2d_41">
    <g clip-path="url(#p9407e7a159)">
     <use xlink:href="#m07312e8ca7" x="10.145455" y="185.22" style="fill: #0073bd; stroke: #0073bd"/>
    </g>
   </g>
   <g id="line2d_42">
    <g clip-path="url(#p9407e7a159)">
     <use xlink:href="#m07312e8ca7" x="139.122638" y="66.527607" style="fill: #0073bd; stroke: #0073bd"/>
    </g>
   </g>
   <g id="line2d_43">
    <g clip-path="url(#p9407e7a159)">
     <use xlink:href="#m07312e8ca7" x="128.505953" y="60.689332" style="fill: #0073bd; stroke: #0073bd"/>
    </g>
   </g>
   <g id="line2d_44">
    <defs>
     <path id="mec89f5bb92" d="M 0 4.5 
C 1.193414 4.5 2.338109 4.025852 3.181981 3.181981 
C 4.025852 2.338109 4.5 1.193414 4.5 0 
C 4.5 -1.193414 4.025852 -2.338109 3.181981 -3.181981 
C 2.338109 -4.025852 1.193414 -4.5 0 -4.5 
C -1.193414 -4.5 -2.338109 -4.025852 -3.181981 -3.181981 
C -4.025852 -2.338109 -4.5 -1.193414 -4.5 0 
C -4.5 1.193414 -4.025852 2.338109 -3.181981 3.181981 
C -2.338109 4.025852 -1.193414 4.5 0 4.5 
z
" style="stroke: #d9541a"/>
    </defs>
    <g clip-path="url(#p9407e7a159)">
     <use xlink:href="#mec89f5bb92" x="128.505953" y="60.689332" style="fill: #d9541a; stroke: #d9541a"/>
    </g>
   </g>
   <g id="line2d_45">
    <g clip-path="url(#p9407e7a159)">
     <use xlink:href="#mec89f5bb92" x="10.145455" y="185.22" style="fill: #d9541a; stroke: #d9541a"/>
    </g>
   </g>
   <g id="line2d_46">
    <g clip-path="url(#p9407e7a159)">
     <use xlink:href="#mec89f5bb92" x="25.100015" y="127.559077" style="fill: #d9541a; stroke: #d9541a"/>
    </g>
   </g>
   <g id="line2d_47">
    <g clip-path="url(#p9407e7a159)">
     <use xlink:href="#mec89f5bb92" x="183.030941" y="38.456371" style="fill: #d9541a; stroke: #d9541a"/>
    </g>
   </g>
   <g id="line2d_48">
    <defs>
     <path id="mac6961bc5d" d="M 0 9 
C 2.386828 9 4.676219 8.051703 6.363961 6.363961 
C 8.051703 4.676219 9 2.386828 9 0 
C 9 -2.386828 8.051703 -4.676219 6.363961 -6.363961 
C 4.676219 -8.051703 2.386828 -9 0 -9 
C -2.386828 -9 -4.676219 -8.051703 -6.363961 -6.363961 
C -8.051703 -4.676219 -9 -2.386828 -9 0 
C -9 2.386828 -8.051703 4.676219 -6.363961 6.363961 
C -4.676219 8.051703 -2.386828 9 0 9 
z
" style="stroke: #000000; stroke-opacity: 0"/>
    </defs>
    <g clip-path="url(#p9407e7a159)">
     <use xlink:href="#mac6961bc5d" x="25.100015" y="127.559077" style="fill: #78ab30; fill-opacity: 0.4; stroke: #000000; stroke-opacity: 0"/>
    </g>
   </g>
   <g id="line2d_49">
    <g clip-path="url(#p9407e7a159)">
     <use xlink:href="#mac6961bc5d" x="183.030941" y="38.456371" style="fill: #78ab30; fill-opacity: 0.4; stroke: #000000; stroke-opacity: 0"/>
    </g>
   </g>
   <g id="line2d_50">
    <defs>
     <path id="m599968071e" d="M 0 -9 
L -9 9 
L 9 9 
z
" style="stroke: #000000; stroke-linejoin: miter"/>
    </defs>
    <g clip-path="url(#p9407e7a159)">
     <use xlink:href="#m599968071e" x="213.054545" y="8.82" style="stroke: #000000; stroke-linejoin: miter"/>
    </g>
   </g>
   <g id="legend_1">
    <g id="patch_2">
     <path d="M 7 66.7125 
L 96.271875 66.7125 
Q 98.271875 66.7125 98.271875 64.7125 
L 98.271875 7 
Q 98.271875 5 96.271875 5 
L 7 5 
Q 5 5 5 7 
L 5 64.7125 
Q 5 66.7125 7 66.7125 
z
" style="fill: #ffffff; opacity: 0.8; stroke: #cccccc; stroke-linejoin: miter"/>
    </g>
    <g id="line2d_51">
     <defs>
      <path id="mbd3ea25473" d="M 0 1.5 
C 0.397805 1.5 0.77937 1.341951 1.06066 1.06066 
C 1.341951 0.77937 1.5 0.397805 1.5 0 
C 1.5 -0.397805 1.341951 -0.77937 1.06066 -1.06066 
C 0.77937 -1.341951 0.397805 -1.5 0 -1.5 
C -0.397805 -1.5 -0.77937 -1.341951 -1.06066 -1.06066 
C -1.341951 -0.77937 -1.5 -0.397805 -1.5 0 
C -1.5 0.397805 -1.341951 0.77937 -1.06066 1.06066 
C -0.77937 1.341951 -0.397805 1.5 0 1.5 
z
" style="stroke: #0073bd"/>
     </defs>
     <g>
      <use xlink:href="#mbd3ea25473" x="19" y="13.098438" style="fill: #0073bd; stroke: #0073bd"/>
     </g>
    </g>
    <g id="text_1">
     <!-- Nodes -->
     <g transform="translate(37 16.598438) scale(0.1 -0.1)">
      <defs>
       <path id="DejaVuSerif-4e" d="M 313 0 
L 313 331 
L 941 331 
L 941 4331 
L 313 4331 
L 313 4666 
L 1509 4666 
L 4306 984 
L 4306 4331 
L 3681 4331 
L 3681 4666 
L 5319 4666 
L 5319 4331 
L 4691 4331 
L 4691 -91 
L 4313 -91 
L 1325 3841 
L 1325 331 
L 1953 331 
L 1953 0 
L 313 0 
z
" transform="scale(0.015625)"/>
       <path id="DejaVuSerif-6f" d="M 1925 219 
Q 2388 219 2623 584 
Q 2859 950 2859 1663 
Q 2859 2375 2623 2739 
Q 2388 3103 1925 3103 
Q 1463 3103 1227 2739 
Q 991 2375 991 1663 
Q 991 950 1228 584 
Q 1466 219 1925 219 
z
M 1925 -91 
Q 1200 -91 759 389 
Q 319 869 319 1663 
Q 319 2456 758 2934 
Q 1197 3413 1925 3413 
Q 2653 3413 3092 2934 
Q 3531 2456 3531 1663 
Q 3531 869 3092 389 
Q 2653 -91 1925 -91 
z
" transform="scale(0.015625)"/>
       <path id="DejaVuSerif-64" d="M 3359 331 
L 3909 331 
L 3909 0 
L 2784 0 
L 2784 519 
Q 2616 206 2355 57 
Q 2094 -91 1709 -91 
Q 1097 -91 708 395 
Q 319 881 319 1663 
Q 319 2444 706 2928 
Q 1094 3413 1709 3413 
Q 2094 3413 2355 3264 
Q 2616 3116 2784 2803 
L 2784 4531 
L 2241 4531 
L 2241 4863 
L 3359 4863 
L 3359 331 
z
M 2784 1497 
L 2784 1825 
Q 2784 2422 2554 2737 
Q 2325 3053 1888 3053 
Q 1444 3053 1217 2703 
Q 991 2353 991 1663 
Q 991 975 1217 622 
Q 1444 269 1888 269 
Q 2325 269 2554 583 
Q 2784 897 2784 1497 
z
" transform="scale(0.015625)"/>
       <path id="DejaVuSerif-65" d="M 3469 1600 
L 991 1600 
L 991 1575 
Q 991 903 1244 561 
Q 1497 219 1991 219 
Q 2369 219 2611 417 
Q 2853 616 2950 1006 
L 3413 1006 
Q 3275 459 2904 184 
Q 2534 -91 1931 -91 
Q 1203 -91 761 389 
Q 319 869 319 1663 
Q 319 2450 753 2931 
Q 1188 3413 1894 3413 
Q 2647 3413 3050 2948 
Q 3453 2484 3469 1600 
z
M 2791 1931 
Q 2772 2513 2545 2808 
Q 2319 3103 1894 3103 
Q 1497 3103 1269 2806 
Q 1041 2509 991 1931 
L 2791 1931 
z
" transform="scale(0.015625)"/>
       <path id="DejaVuSerif-73" d="M 359 184 
L 359 959 
L 691 959 
Q 703 588 923 403 
Q 1144 219 1575 219 
Q 1963 219 2166 364 
Q 2369 509 2369 788 
Q 2369 1006 2220 1140 
Q 2072 1275 1594 1428 
L 1178 1569 
Q 750 1706 558 1912 
Q 366 2119 366 2438 
Q 366 2894 700 3153 
Q 1034 3413 1625 3413 
Q 1888 3413 2178 3344 
Q 2469 3275 2778 3144 
L 2778 2419 
L 2447 2419 
Q 2434 2741 2221 2922 
Q 2009 3103 1644 3103 
Q 1281 3103 1095 2975 
Q 909 2847 909 2591 
Q 909 2381 1050 2254 
Q 1191 2128 1613 1997 
L 2069 1856 
Q 2541 1709 2748 1489 
Q 2956 1269 2956 922 
Q 2956 450 2595 179 
Q 2234 -91 1600 -91 
Q 1278 -91 972 -22 
Q 666 47 359 184 
z
" transform="scale(0.015625)"/>
      </defs>
      <use xlink:href="#DejaVuSerif-4e"/>
      <use xlink:href="#DejaVuSerif-6f" transform="translate(87.5 0)"/>
      <use xlink:href="#DejaVuSerif-64" transform="translate(147.705078 0)"/>
      <use xlink:href="#DejaVuSerif-65" transform="translate(211.71875 0)"/>
      <use xlink:href="#DejaVuSerif-73" transform="translate(270.898438 0)"/>
     </g>
    </g>
    <g id="line2d_52">
     <defs>
      <path id="m12458521e4" d="M 0 4 
C 1.060812 4 2.078319 3.578535 2.828427 2.828427 
C 3.578535 2.078319 4 1.060812 4 0 
C 4 -1.060812 3.578535 -2.078319 2.828427 -2.828427 
C 2.078319 -3.578535 1.060812 -4 0 -4 
C -1.060812 -4 -2.078319 -3.578535 -2.828427 -2.828427 
C -3.578535 -2.078319 -4 -1.060812 -4 0 
C -4 1.060812 -3.578535 2.078319 -2.828427 2.828427 
C -2.078319 3.578535 -1.060812 4 0 4 
z
" style="stroke: #d9541a"/>
     </defs>
     <g>
      <use xlink:href="#m12458521e4" x="19" y="27.776563" style="fill: #d9541a; stroke: #d9541a"/>
     </g>
    </g>
    <g id="text_2">
     <!-- Loads -->
     <g transform="translate(37 31.276563) scale(0.1 -0.1)">
      <defs>
       <path id="DejaVuSerif-4c" d="M 353 0 
L 353 331 
L 947 331 
L 947 4331 
L 353 4331 
L 353 4666 
L 2175 4666 
L 2175 4331 
L 1581 4331 
L 1581 384 
L 3713 384 
L 3713 1166 
L 4097 1166 
L 4097 0 
L 353 0 
z
" transform="scale(0.015625)"/>
       <path id="DejaVuSerif-61" d="M 2547 1044 
L 2547 1747 
L 1806 1747 
Q 1378 1747 1168 1562 
Q 959 1378 959 997 
Q 959 650 1171 447 
Q 1384 244 1747 244 
Q 2106 244 2326 466 
Q 2547 688 2547 1044 
z
M 3122 2075 
L 3122 331 
L 3634 331 
L 3634 0 
L 2547 0 
L 2547 359 
Q 2356 128 2106 18 
Q 1856 -91 1522 -91 
Q 969 -91 644 203 
Q 319 497 319 997 
Q 319 1513 691 1797 
Q 1063 2081 1741 2081 
L 2547 2081 
L 2547 2309 
Q 2547 2688 2317 2895 
Q 2088 3103 1672 3103 
Q 1328 3103 1125 2947 
Q 922 2791 872 2484 
L 575 2484 
L 575 3156 
Q 875 3284 1158 3348 
Q 1441 3413 1709 3413 
Q 2400 3413 2761 3070 
Q 3122 2728 3122 2075 
z
" transform="scale(0.015625)"/>
      </defs>
      <use xlink:href="#DejaVuSerif-4c"/>
      <use xlink:href="#DejaVuSerif-6f" transform="translate(66.40625 0)"/>
      <use xlink:href="#DejaVuSerif-61" transform="translate(126.611328 0)"/>
      <use xlink:href="#DejaVuSerif-64" transform="translate(186.230469 0)"/>
      <use xlink:href="#DejaVuSerif-73" transform="translate(250.244141 0)"/>
     </g>
    </g>
    <g id="line2d_53">
     <defs>
      <path id="med6372f513" d="M 0 4 
C 1.060812 4 2.078319 3.578535 2.828427 2.828427 
C 3.578535 2.078319 4 1.060812 4 0 
C 4 -1.060812 3.578535 -2.078319 2.828427 -2.828427 
C 2.078319 -3.578535 1.060812 -4 0 -4 
C -1.060812 -4 -2.078319 -3.578535 -2.828427 -2.828427 
C -3.578535 -2.078319 -4 -1.060812 -4 0 
C -4 1.060812 -3.578535 2.078319 -2.828427 2.828427 
C -2.078319 3.578535 -1.060812 4 0 4 
z
" style="stroke: #000000; stroke-opacity: 0"/>
     </defs>
     <g>
      <use xlink:href="#med6372f513" x="19" y="42.454688" style="fill: #78ab30; fill-opacity: 0.4; stroke: #000000; stroke-opacity: 0"/>
     </g>
    </g>
    <g id="text_3">
     <!-- Generators -->
     <g transform="translate(37 45.954688) scale(0.1 -0.1)">
      <defs>
       <path id="DejaVuSerif-47" d="M 4097 3272 
Q 3988 3856 3641 4136 
Q 3294 4416 2675 4416 
Q 1869 4416 1472 3897 
Q 1075 3378 1075 2328 
Q 1075 1300 1484 772 
Q 1894 244 2688 244 
Q 3041 244 3362 331 
Q 3684 419 3975 594 
L 3975 1797 
L 3097 1797 
L 3097 2131 
L 4609 2131 
L 4609 391 
Q 4194 150 3714 29 
Q 3234 -91 2688 -91 
Q 1631 -91 995 570 
Q 359 1231 359 2328 
Q 359 3434 996 4092 
Q 1634 4750 2713 4750 
Q 3113 4750 3539 4658 
Q 3966 4566 4447 4378 
L 4447 3272 
L 4097 3272 
z
" transform="scale(0.015625)"/>
       <path id="DejaVuSerif-6e" d="M 263 0 
L 263 331 
L 781 331 
L 781 2988 
L 231 2988 
L 231 3322 
L 1356 3322 
L 1356 2731 
Q 1516 3069 1770 3241 
Q 2025 3413 2363 3413 
Q 2913 3413 3172 3097 
Q 3431 2781 3431 2113 
L 3431 331 
L 3944 331 
L 3944 0 
L 2356 0 
L 2356 331 
L 2853 331 
L 2853 1931 
Q 2853 2541 2703 2767 
Q 2553 2994 2175 2994 
Q 1775 2994 1565 2701 
Q 1356 2409 1356 1850 
L 1356 331 
L 1856 331 
L 1856 0 
L 263 0 
z
" transform="scale(0.015625)"/>
       <path id="DejaVuSerif-72" d="M 3059 3328 
L 3059 2497 
L 2728 2497 
Q 2713 2744 2591 2866 
Q 2469 2988 2234 2988 
Q 1809 2988 1582 2694 
Q 1356 2400 1356 1850 
L 1356 331 
L 2022 331 
L 2022 0 
L 263 0 
L 263 331 
L 781 331 
L 781 2994 
L 231 2994 
L 231 3322 
L 1356 3322 
L 1356 2731 
Q 1525 3078 1790 3245 
Q 2056 3413 2438 3413 
Q 2578 3413 2733 3391 
Q 2888 3369 3059 3328 
z
" transform="scale(0.015625)"/>
       <path id="DejaVuSerif-74" d="M 691 2988 
L 184 2988 
L 184 3322 
L 691 3322 
L 691 4353 
L 1269 4353 
L 1269 3322 
L 2350 3322 
L 2350 2988 
L 1269 2988 
L 1269 878 
Q 1269 456 1350 337 
Q 1431 219 1650 219 
Q 1875 219 1978 351 
Q 2081 484 2088 781 
L 2522 781 
Q 2497 328 2275 118 
Q 2053 -91 1600 -91 
Q 1103 -91 897 129 
Q 691 350 691 878 
L 691 2988 
z
" transform="scale(0.015625)"/>
      </defs>
      <use xlink:href="#DejaVuSerif-47"/>
      <use xlink:href="#DejaVuSerif-65" transform="translate(79.882812 0)"/>
      <use xlink:href="#DejaVuSerif-6e" transform="translate(139.0625 0)"/>
      <use xlink:href="#DejaVuSerif-65" transform="translate(203.466797 0)"/>
      <use xlink:href="#DejaVuSerif-72" transform="translate(262.646484 0)"/>
      <use xlink:href="#DejaVuSerif-61" transform="translate(310.449219 0)"/>
      <use xlink:href="#DejaVuSerif-74" transform="translate(370.068359 0)"/>
      <use xlink:href="#DejaVuSerif-6f" transform="translate(410.253906 0)"/>
      <use xlink:href="#DejaVuSerif-72" transform="translate(470.458984 0)"/>
      <use xlink:href="#DejaVuSerif-73" transform="translate(518.261719 0)"/>
     </g>
    </g>
    <g id="line2d_54">
     <defs>
      <path id="m53ad567bb6" d="M 0 -4 
L -4 4 
L 4 4 
z
" style="stroke: #000000; stroke-linejoin: miter"/>
     </defs>
     <g>
      <use xlink:href="#m53ad567bb6" x="19" y="57.132813" style="stroke: #000000; stroke-linejoin: miter"/>
     </g>
    </g>
    <g id="text_4">
     <!-- Head Node -->
     <g transform="translate(37 60.632813) scale(0.1 -0.1)">
      <defs>
       <path id="DejaVuSerif-48" d="M 353 0 
L 353 331 
L 947 331 
L 947 4331 
L 353 4331 
L 353 4666 
L 2175 4666 
L 2175 4331 
L 1581 4331 
L 1581 2719 
L 4000 2719 
L 4000 4331 
L 3406 4331 
L 3406 4666 
L 5228 4666 
L 5228 4331 
L 4634 4331 
L 4634 331 
L 5228 331 
L 5228 0 
L 3406 0 
L 3406 331 
L 4000 331 
L 4000 2338 
L 1581 2338 
L 1581 331 
L 2175 331 
L 2175 0 
L 353 0 
z
" transform="scale(0.015625)"/>
       <path id="DejaVuSerif-20" transform="scale(0.015625)"/>
      </defs>
      <use xlink:href="#DejaVuSerif-48"/>
      <use xlink:href="#DejaVuSerif-65" transform="translate(87.207031 0)"/>
      <use xlink:href="#DejaVuSerif-61" transform="translate(146.386719 0)"/>
      <use xlink:href="#DejaVuSerif-64" transform="translate(206.005859 0)"/>
      <use xlink:href="#DejaVuSerif-20" transform="translate(270.019531 0)"/>
      <use xlink:href="#DejaVuSerif-4e" transform="translate(301.806641 0)"/>
      <use xlink:href="#DejaVuSerif-6f" transform="translate(389.306641 0)"/>
      <use xlink:href="#DejaVuSerif-64" transform="translate(449.511719 0)"/>
      <use xlink:href="#DejaVuSerif-65" transform="translate(513.525391 0)"/>
     </g>
    </g>
   </g>
  </g>
 </g>
 <defs>
  <clipPath id="p9407e7a159">
   <rect x="0" y="0" width="223.2" height="194.04"/>
  </clipPath>
 </defs>
</svg>
